<?xml version="1.0" encoding="utf-8"?>
<!-- Generator: Adobe Illustrator 16.0.0, SVG Export Plug-In . SVG Version: 6.00 Build 0)  -->
<!DOCTYPE svg PUBLIC "-//W3C//DTD SVG 1.1//EN" "http://www.w3.org/Graphics/SVG/1.1/DTD/svg11.dtd">
<svg version="1.1" id="Layer_1" xmlns="http://www.w3.org/2000/svg" xmlns:xlink="http://www.w3.org/1999/xlink" x="0px" y="0px"
	 width="68.671px" height="38.01px" viewBox="0 0 68.671 38.01" enable-background="new 0 0 68.671 38.01" xml:space="preserve">
<g>
	<path fill="#FFFFFF" d="M42.395,12.903c0,1.023-0.83,1.853-1.852,1.853H28.13c-1.021,0-1.854-0.829-1.854-1.853
		c0-1.026,0.832-1.86,1.854-1.86h12.413C41.564,11.043,42.395,11.874,42.395,12.903"/>
	<path fill="#FFFFFF" d="M39.271,26.41h-0.035c-0.288-2.589-2.482-4.604-5.147-4.604c-2.669,0-4.858,2.016-5.146,4.604h-0.035
		l0.028,0.056c-0.019,0.169-0.028,0.343-0.028,0.515c0,2.053,1.171,2.803,2.261,4.309c1.256,1.746,2.941,4.551,3.151,6.721
		c-0.159-1.662,2.116-5.648,3.012-6.993c0.906-1.372,1.94-2.271,1.94-4.034c0-0.169-0.016-0.343-0.03-0.512L39.271,26.41z"/>
	<path fill="#FFFFFF" d="M26.899,9.286c-2.417-1.783-4.839-3.5-7.417-4.877c-2.579-1.357-5.309-2.411-8.124-2.635
		C10.657,1.708,9.946,1.693,9.259,1.73C8.518,1.771,7.852,1.861,7.15,1.986c-1.388,0.247-2.725,0.72-3.855,1.472
		c-1.133,0.76-2,1.844-2.382,3.214C0.49,8.028,0.475,9.54,0.424,11.038C0.099,9.579-0.133,8.06,0.086,6.486
		c0.121-0.78,0.378-1.561,0.79-2.276c0.429-0.737,0.981-1.302,1.612-1.836c1.264-1.047,2.803-1.62,4.329-1.992
		c0.757-0.175,1.569-0.278,2.318-0.34c0.805-0.057,1.582-0.057,2.376,0.013c3.156,0.286,6.098,1.534,8.651,3.192
		C22.729,4.917,24.972,6.985,26.899,9.286"/>
	<path fill="#FFFFFF" d="M15.748,1.893c-0.722,1.031-1.473,1.861-2.225,2.653c-0.747,0.786-1.496,1.509-2.212,2.225
		c-0.714,0.718-1.41,1.413-2.051,2.16c-0.643,0.754-1.236,1.544-1.781,2.687c-0.671-1.099-0.625-2.543-0.217-3.749
		C7.68,6.641,8.422,5.587,9.285,4.732c0.868-0.86,1.872-1.541,2.952-2.039C13.316,2.216,14.477,1.866,15.748,1.893"/>
	<path fill="#FFFFFF" d="M17.832,7.331c0-0.875,0.712-1.578,1.584-1.578c0.873,0,1.582,0.703,1.582,1.578
		c0,0.875-0.709,1.581-1.582,1.581C18.544,8.915,17.832,8.206,17.832,7.331"/>
	<path fill="#FFFFFF" d="M41.769,9.286c1.928-2.304,4.171-4.369,6.736-6.032c2.553-1.661,5.5-2.906,8.658-3.193
		c0.787-0.069,1.574-0.069,2.377-0.013c0.747,0.06,1.564,0.163,2.321,0.341c1.523,0.372,3.062,0.943,4.324,1.992
		c0.63,0.535,1.181,1.1,1.609,1.837c0.419,0.714,0.666,1.496,0.792,2.275c0.217,1.572-0.016,3.091-0.338,4.553
		c-0.056-1.499-0.071-3.01-0.489-4.366c-0.382-1.37-1.249-2.455-2.382-3.214c-1.133-0.752-2.473-1.228-3.855-1.472
		c-0.703-0.124-1.369-0.214-2.106-0.256c-0.693-0.039-1.402-0.025-2.102,0.044c-2.811,0.225-5.545,1.276-8.126,2.635
		C46.61,5.786,44.186,7.503,41.769,9.286"/>
	<path fill="#FFFFFF" d="M52.92,1.893c1.276-0.026,2.43,0.323,3.521,0.804c1.08,0.498,2.079,1.178,2.952,2.039
		c0.863,0.855,1.6,1.909,2.019,3.136c0.413,1.206,0.454,2.65-0.217,3.75c-0.545-1.141-1.136-1.933-1.779-2.688
		c-0.646-0.747-1.34-1.441-2.059-2.159c-0.717-0.711-1.461-1.442-2.207-2.226C54.398,3.753,53.646,2.923,52.92,1.893"/>
	<path fill="#FFFFFF" d="M50.836,7.331c0-0.875-0.711-1.578-1.579-1.578c-0.878,0-1.587,0.703-1.587,1.578
		c0,0.875,0.709,1.581,1.587,1.581C50.125,8.915,50.836,8.206,50.836,7.331"/>
	<polygon fill="#FFFFFF" points="34.337,5.336 32.188,9.059 36.486,9.059 34.337,5.336 32.188,9.059 36.486,9.059 	"/>
	<path fill="#FFFFFF" d="M29.78,16.821c-0.159,1.987-0.911,4.013-2.444,5.598c-0.76,0.789-1.688,1.423-2.697,1.859
		c-1.125,0.472-2.226,0.633-3.391,0.598c-1.146-0.063-2.326-0.36-3.365-1.024c-1.06-0.656-1.842-1.68-2.251-2.755
		c-0.787-2.185-0.469-4.246,0.116-6.142c0.593,1.908,0.999,3.82,1.91,5.128c0.438,0.643,0.981,1.125,1.597,1.407
		c0.621,0.312,1.362,0.475,2.124,0.513c0.752,0.037,1.59-0.059,2.266-0.261c0.782-0.244,1.539-0.593,2.24-1.044
		C27.315,19.812,28.514,18.382,29.78,16.821"/>
	<path fill="#FFFFFF" d="M15.748,15.833c0-1.94,1.569-3.511,3.51-3.511c1.939,0,3.509,1.57,3.509,3.511
		c0,1.938-1.569,3.511-3.509,3.511C17.317,19.344,15.748,17.771,15.748,15.833"/>
	<path fill="#FFFFFF" d="M38.421,16.821c1.264,1.561,2.465,2.987,3.893,3.877c0.707,0.451,1.459,0.805,2.24,1.044
		c0.677,0.197,1.512,0.296,2.266,0.261c0.763-0.038,1.507-0.2,2.125-0.513c0.615-0.282,1.16-0.765,1.599-1.407
		c0.914-1.31,1.322-3.22,1.913-5.128c0.585,1.896,0.903,3.957,0.115,6.142c-0.408,1.075-1.19,2.099-2.255,2.755
		c-1.034,0.666-2.215,0.961-3.363,1.024c-1.163,0.035-2.271-0.126-3.393-0.598c-1.005-0.437-1.938-1.07-2.695-1.859
		C39.332,20.834,38.575,18.809,38.421,16.821"/>
	<path fill="#FFFFFF" d="M52.456,15.833c0-1.94-1.572-3.511-3.51-3.511c-1.945,0-3.515,1.57-3.515,3.511
		c0,1.938,1.569,3.511,3.515,3.511C50.882,19.346,52.456,17.771,52.456,15.833"/>
</g>
</svg>
